<svg width="56" height="71" viewBox="0 0 56 71" fill="none" xmlns="http://www.w3.org/2000/svg">
    <g id="teeth">
        <path fill-rule="evenodd" clip-rule="evenodd"
              d="M51.4264 30.4935C48.2385 34.7232 57.0746 59.6809 42.1638 71L37.4434 67.9466C42.6383 35.4993 13.3579 36.8441 18.8596 67.9417L14.5632 70.9992C-0.61617 58.7549 7.12694 33.5614 4.08634 30.0455C-1.58793 23.4826 -2.65002 13.6646 9.41145 1.65849C13.8861 -2.79561 20.467 4.05891 27.4613 4.05891C34.4557 4.05891 42.4731 -3.16179 47.3156 1.65849C58.2295 12.5215 57.9747 21.8032 51.4264 30.4935ZM44.4817 7.57569C41.3809 4.48909 36.7557 7.18277 32.1166 8.72526C33.9438 10.6728 35.495 12.9533 36.2958 14.572L32.5683 16.0019C30.7021 13.1494 25.985 10.049 22.7027 8.61508C18.5918 7.13092 14.8741 4.818 12.1045 7.57488C7.66816 11.9909 5.37387 15.6608 5.37387 19.2723C5.37387 24.8582 9.96976 27.8792 10.5094 33.0656C23.4303 38.995 29.9827 25.9065 44.734 32.394C44.734 26.5984 50.3016 24.1291 50.3016 19.1192C50.3 15.3084 48.4916 11.5672 44.4817 7.57569Z"
              fill="#9A9A9A"/>
    </g>

    <g id="sun">
        <path fill-rule="evenodd" clip-rule="evenodd"
              d="M34.5 63C15.4458 63 0 47.521 0 28.4271C0 27.2847 0.0560836 26.1549 0.164301 25.041L21.9168 39.4093L23.5219 39.73L68.1801 20.91C68.7156 23.331 69 25.8454 69 28.4271C69.0008 47.521 53.5549 63 34.5 63ZM21.9176 33.7147L1.06637 19.8674C1.58613 17.8216 2.28994 15.8496 3.15568 13.9677L21.1063 25.5802H22.7312L62.8142 8.67213C64.2771 10.7733 65.5141 13.0454 66.4873 15.4529L23.7162 33.8406L21.9176 33.7147ZM21.1055 19.8856L5.46932 9.74328C6.61705 7.95724 7.92356 6.28362 9.37067 4.74299L21.927 13.0604L54.1324 0C56.1553 1.40524 58.0227 3.02028 59.698 4.81662L22.6435 20.2181L21.1055 19.8856Z"
              fill="#969696"/>
    </g>
    <g id="squirell">
        <path fill-rule="evenodd" clip-rule="evenodd"
              d="M69.9934 36.9143C66.9311 37.8395 62.0271 39.2508 59.2111 40.0567L58.6477 42.9404C61.2778 43.6554 64.6793 45.441 66.9842 51.2457L61.1789 59.1983C61.1789 59.1983 64.2951 59.4458 68.1193 59.5539C71.4758 59.6478 70.9787 65 70.9787 65H34.4833C34.4833 65 30.9225 45.0384 47.4118 31.46C46.7576 23.4656 47.6766 17.7772 50.6932 14.3821L50.7419 5.25973L58.2265 10.8535C65.1543 10.5157 69.9167 17.9435 70.5657 23.283L61.7955 26.8503L60.7711 32.0832L67.3441 31.8163L69.4616 27.5676C74.6104 29.6029 76.1445 35.0557 69.9934 36.9143ZM30.196 64.7309C21.203 63.6528 14.9929 58.7741 14.9929 48.8637C14.9929 37.873 21.5792 13.5269 1.14394 16.6925L0 14.2091C3.19506 7.28162 9.74966 0 20.7236 0C32.8526 0 38.8799 7.60741 38.8799 21.6793C38.8799 37.9111 27.7473 39.0256 30.196 64.7309Z"
              fill="#9A9A9A"/>
    </g>
    <g id="print">
        <path fill-rule="evenodd" clip-rule="evenodd"
              d="M57.6052 49.6066C50.8288 49.6066 43.97 44.9408 43.97 36.0239C43.97 30.4226 39.6974 27.4926 35.4775 27.4926C33.3375 27.4926 31.3885 28.2587 29.9892 29.6506C28.3357 31.2963 27.4615 33.8132 27.4615 36.9302C27.4615 52.1728 35.2215 61.1539 51.8807 65.1947C53.428 65.5702 54.382 67.1467 54.0124 68.7147C53.6955 70.055 52.5153 70.9571 51.2131 70.9571C50.9909 70.9571 50.7654 70.9312 50.5407 70.877C31.4041 66.2345 21.7008 54.8132 21.7008 36.931C21.7008 30.9667 24.0145 27.4133 25.9553 25.4814C28.4377 23.0112 31.8206 21.6509 35.4783 21.6509C44.7363 21.6509 49.7316 29.0565 49.7316 36.0239C49.7316 41.3715 53.6865 43.7649 57.606 43.7649C59.8588 43.7649 62.0358 42.9638 63.5774 41.5668C65.3191 39.9896 66.2393 37.6804 66.2393 34.8906C66.2393 16.9475 50.1143 5.84167 35.1746 5.84167C25.3092 5.84167 16.8809 10.2021 11.4428 18.12C5.10343 27.3515 3.9931 40.1924 8.47312 52.4699C9.02458 53.982 8.26241 55.6636 6.77099 56.2227C5.27792 56.7827 3.62107 56.0099 3.0696 54.4961C-2.06312 40.4277 -0.700099 25.5807 6.71667 14.7819C13.1663 5.38769 23.5379 0 35.1738 0C45.6928 0 55.2742 3.93645 62.1535 11.0841C68.4114 17.5851 72 26.2625 72 34.8906C72 40.5762 69.5069 44.0287 67.4163 45.923C64.7931 48.2989 61.309 49.6066 57.6052 49.6066ZM34.5993 10.5667C47.3496 9.78313 60.5855 19.8183 60.5855 35.3012C60.5855 36.9143 59.2958 38.222 57.7048 38.222C56.1138 38.222 54.8248 36.9143 54.8248 35.3012C54.8248 23.0304 44.3594 15.4571 34.5993 16.4093C25.5997 17.2863 16.6685 23.3784 16.2636 36.4353C15.8125 50.9602 21.1173 60.8752 31.5399 67.6157C32.8807 68.4836 33.2741 70.2895 32.4181 71.6489C31.8691 72.5227 30.9382 73 29.9868 73C29.4567 73 28.9209 72.8523 28.4402 72.5418C16.3697 64.734 10.0666 52.918 10.5012 36.4362C10.9481 19.492 22.8877 11.2878 34.5993 10.5667ZM33.0667 36.4403C33.0667 34.8264 34.3565 33.5195 35.9483 33.5195C37.5393 33.5195 38.8291 34.8264 38.8291 36.4403C38.8291 41.9999 40.6958 46.5798 44.2268 49.6842C48.5949 53.5247 55.303 54.9159 63.6268 53.7066C65.1981 53.4813 66.6615 54.5879 66.887 56.1843C67.1117 57.7816 66.0187 59.2604 64.4433 59.4891C62.2309 59.8103 60.1024 59.9706 58.0686 59.9706C50.8831 59.9706 44.8697 57.9811 40.4522 54.0972C35.6899 49.9112 33.0667 43.6398 33.0667 36.4403Z"
              fill="#9A9A9A"/>
    </g>
    <g id="pizza">
        <path fill-rule="evenodd" clip-rule="evenodd"
              d="M28.2143 56.2901C18.9759 55.1578 21.0143 42.034 29.6871 43.0979C38.3269 44.1558 36.6514 57.3237 28.2143 56.2901ZM0 64.411C1.06124 60.7648 2.27842 55.8226 5.7489 54.6115C15.5123 38.5107 39.3864 0 39.3864 0L44.3105 0.984277C44.3105 0.984277 48.2861 16.261 52.3405 31.4424L46.1558 30.8286C43.1488 19.2882 40.4849 9.13553 40.4849 9.13553C40.4849 9.13553 38.3286 12.7117 35.1882 17.9187C43.2554 25.3264 34.9205 40.0205 24.2223 36.1102C19.6395 43.7169 15.2628 50.986 12.9064 54.9154C20.4564 62.0269 46.3152 64.8768 53.7179 60.1631C53.3532 58.7001 52.8784 56.8268 52.3292 54.6799C51.1164 55.0443 49.7484 55.1733 48.2306 54.9872C34.5324 53.3087 37.5558 33.8473 50.4155 35.4237C58.7001 36.4391 60.5809 44.96 57.4977 50.4424C58.7504 54.9439 59.7735 58.4785 60.3479 60.1882C64.6344 62.6675 64.5045 69.9505 65 71.9728C50.9578 81.0226 14.2631 77.4681 0 64.411Z"
              fill="#9A9A9A"/>
    </g>
    <g id="gloves">
        <path fill-rule="evenodd" clip-rule="evenodd"
              d="M78.7828 29.0481C83.087 26.6443 86.4522 32.7741 81.6471 35.4584C74.7025 39.4195 68.4308 44.5068 63.0761 50.5226C58.2475 46.396 53.3641 40.6267 51.165 36.6363L50.5076 15.859C50.5076 15.859 57.1284 5.67461 59.7031 2.39735C63.1074 -1.92158 68.2569 1.70824 64.8526 6.83648C62.2622 10.7468 56.0875 20.6747 56.0875 20.6747L57.2771 21.9007C57.2771 21.9007 68.0143 9.92944 70.6516 7.08487C74.3846 3.07844 79.6984 7.83809 75.5115 12.3573C72.6316 15.4663 61.2918 28.0946 61.2918 28.0946L62.3483 29.3286C62.3483 29.3286 73.2342 19.8494 76.1845 17.4135C80.4106 13.9279 84.5426 18.8317 80.0427 23.0225C76.9671 25.867 65.956 35.186 65.956 35.186L66.6134 36.3959C66.6134 36.3959 76.1376 30.4985 78.7828 29.0481ZM45.9608 67.59L35.1688 54.3688L33.5175 55.6909L41.0226 69.7535C38.2243 70.7351 35.2646 71.1435 32.3123 70.9554C28.4933 60.0259 20.9334 46.1156 2.02595 33.0065C-2.50527 29.8574 1.41552 24.1042 5.47718 26.9007C7.98149 28.6154 16.8561 35.4023 16.8561 35.4023L17.6387 34.2565C17.6387 34.2565 7.56671 23.9119 4.77285 20.7628C0.68771 16.1715 5.26588 11.7003 9.13972 15.5785C11.8475 18.2949 21.8021 28.7997 21.8021 28.7997L23.0073 27.686C23.0073 27.686 12.904 14 10.3293 10.6186C6.59629 5.70666 12.3327 1.47587 15.6666 5.81083C18.0143 8.9038 27.5933 21.8366 27.5933 21.8366L28.8846 20.7308C28.8846 20.7308 23.6412 10.2419 21.4264 6.09128C18.523 0.730673 24.0012 -2.37832 26.9672 2.26113C29.5811 6.32365 32.2028 11.3157 34.9966 16.6843L35.4192 29.9696L37.9392 30.0978C38.1583 26.5241 38.4792 21.4039 38.667 19.3365C39.1913 13.6474 40.7017 10.8669 46.3286 10.0897L47.4164 38.4873C51.4076 44.4248 55.8841 49.7854 61.057 53.7117C57.1677 59.4931 51.9939 64.2468 45.9608 67.582V67.59Z"
              fill="#9A9A9A"/>
    </g>
    <g id="right-arrow">
        <line x1="2.39624" y1="26.9991" x2="49.3962" y2="26.9991" stroke="#9F9F9F" stroke-width="3"
              stroke-linecap="round"/>
        <path d="M52 27L37.4041 12.5" stroke="#9F9F9F" stroke-width="3" stroke-linecap="round"/>
        <path d="M52 27L37.4041 41.5" stroke="#9F9F9F" stroke-width="3" stroke-linecap="round"/>
    </g>
    <g id="left-arrow">
        <line x1="1.5" y1="-1.5" x2="48.5" y2="-1.5" transform="matrix(-1 0 0 1 53.1038 28.4991)" stroke="#9F9F9F"
              stroke-width="3" stroke-linecap="round"/>
        <path d="M2 27L16.5959 12.5" stroke="#9F9F9F" stroke-width="3" stroke-linecap="round"/>
        <path d="M2 27L16.5959 41.5" stroke="#9F9F9F" stroke-width="3" stroke-linecap="round"/>
    </g>
    <g id="eagle">
        <path fill-rule="evenodd" clip-rule="evenodd"
              d="M72.0725 30.1638C70.6593 31.0236 68.9975 32.0202 67.2572 33.0624C67.3193 33.8863 67.3193 34.7137 67.2572 35.5376L78 34.795C78 34.795 76.1223 44.1291 69.763 43.3084L65.0785 42.657C64.6846 43.3354 64.2475 43.9881 63.77 44.6111L73.7604 49.4312C73.7604 49.4312 67.9638 56.0621 63.2466 52.4991C62.0035 51.5611 60.4987 50.4082 58.9482 49.2423C58.1373 49.8129 57.2917 50.3328 56.4162 50.799L62.4746 57.964C62.4746 57.964 54.9572 61.4488 52.2748 56.5962C51.7252 55.6061 51.0906 54.4402 50.4298 53.2221C49.2309 53.5718 48.0146 53.8588 46.7856 54.0819C48.4409 57.443 50.456 61.5465 51.6663 64.0413C53.302 67.4023 51.1691 70.1511 47.0081 73.1213L43.8807 62.4259L42.075 62.9079L43.9985 75.121C42.5264 76.0394 40.9235 76.9904 39.2094 78C37.4429 77.1793 35.7745 76.339 34.2567 75.4792L36.1344 62.5366L34.3221 62.1132L31.1621 73.5316C26.9094 70.5419 24.7438 67.3502 26.4711 64.0022L31.5677 54.1601C30.2168 53.9258 28.8801 53.617 27.5637 53.2351C26.9094 54.4597 26.2552 55.6191 25.7121 56.6157C23.0362 61.4684 15.5123 57.9836 15.5123 57.9836L21.5773 50.8186C20.7039 50.3463 19.8585 49.8243 19.0453 49.2553C17.4947 50.4473 15.9899 51.6002 14.7469 52.5121C10.0297 56.0751 4.22647 49.4442 4.22647 49.4442L14.2235 44.6176C13.7467 43.9941 13.3097 43.3414 12.9149 42.6635C11.2204 42.898 9.60443 43.113 8.22396 43.3149C1.86462 44.1356 0 34.7885 0 34.7885L10.7428 35.5311C10.6807 34.7072 10.6807 33.8798 10.7428 33.0559C8.98289 32.0072 7.32109 31.0106 5.9079 30.1638C-0.713135 26.1449 4.63865 15.9381 4.63865 15.9381L23.1278 32.9191C20.0398 35.8307 21.2501 42.4355 26.687 42.4355C34.3352 42.4355 33.9884 31.5578 26.8113 31.5578C26.3599 31.5557 25.9098 31.6059 25.4701 31.7076L24.8812 29.8316L28.7413 27.7408L28.303 26.4836C28.303 26.4836 24.8943 26.2491 22.8988 28.3075L21.2763 20.2957L37.8812 22.1456L35.6502 25.8192L39.0851 32.9842L42.5199 25.8192L40.3216 22.1456L56.0237 20.0156L55.2713 28.3075C53.6029 26.2101 49.7297 26.4836 49.7297 26.4836L49.2914 27.7408L53.4066 29.9163L52.7524 31.7076C52.3055 31.6091 51.8492 31.5589 51.3915 31.5578C44.1948 31.5578 43.8676 42.4355 51.5093 42.4355C57.005 42.4355 58.2023 35.7004 54.9768 32.8344L73.381 15.899C73.381 15.899 78.6935 26.1319 72.0725 30.1638ZM33.5239 17.4622C25.1495 6.67566 34.9633 4.94304 34.9633 4.94304L39.0131 11.118L43.2461 4.87139C43.2461 4.87139 52.4056 6.63658 45.1565 17.5078L33.5239 17.4622ZM36.1409 1.82952C37.2073 -0.717314 40.8908 -0.391631 42.232 1.49732L39.0131 6.86456L36.1409 1.82952Z"
              fill="#D8D8D8"/>
    </g>
    <g id="cotton">
        <path fill-rule="evenodd" clip-rule="evenodd"
              d="M56.1553 35.2423C57.467 33.0657 57.4814 30.2288 57.4814 27.4225C57.4814 14.2173 43.1985 16.8515 43.1985 16.8515C43.1985 16.8515 43.5194 5.93897 31.826 5.93897C21.0336 5.93897 19.8184 16.71 19.8184 16.71C19.8184 16.71 5.40849 15.3751 5.40849 28.6464C5.40849 30.6933 5.88524 32.7419 6.85567 34.5456L2.32023 36.6247C0.755344 33.9658 0 30.9035 0 27.9285C0 19.7638 5.66761 11.2219 16.0739 11.2219C18.2637 4.35062 24.2853 0 31.8336 0C40.7352 0 45.5424 5.52451 47.2868 11.216C56.5356 11.216 63 19.0052 63 27.6175C63 31.2748 62.0702 35.1177 59.9566 38.1944L56.1553 35.2423ZM25.4877 49.5078C25.5513 34.0938 32.2401 35.7406 33.1182 25.6392L35.7391 25.2536C40.7352 32.9436 42.1256 40.2769 38.4666 49.8943C43.3475 48.2687 44.2714 40.4981 57.0199 41.3982L58.1699 41.85C58.1699 41.85 54.6684 57.687 36.0397 60.7281L34.0505 72L23.6637 70.2133L26.7977 60.8484C11.6807 58.7261 4.55492 41.1033 4.55492 41.1033L6.51356 39.1538C12.6732 44.1817 19.13 40.7261 25.4877 49.5078Z"
              fill="#9A9A9A"/>
    </g>
    <g id="coctail">
        <path fill-rule="evenodd" clip-rule="evenodd"
              d="M49.8818 27.1543C49.3273 27.1543 48.7913 27.1289 48.2703 27.0843L50.3173 23.3055C62.3024 22.7133 62.1912 3.81844 49.5247 3.81844C44.0051 3.81844 40.7449 7.3836 39.8811 11.4652L51.8326 11.4037L52.9959 13.6338L29.7748 46.6244L30.6444 62.9163C48.2018 63.8445 46.9909 72 27.6273 72C6.45119 72 6.13045 63.8643 23.8005 62.9191L24.5639 46.7864L0 14.2613L1.60656 11.6633L35.9809 11.4858C36.8975 5.46129 41.5154 1.38252e-08 49.576 1.38252e-08C67.4799 -0.000707499 67.3672 27.1543 49.8818 27.1543ZM5.79617 15.5582C5.79617 15.5582 20.3571 34.6568 22.2003 37.1522C24.0699 39.6837 30.3793 39.4389 32.0984 37.1331C33.6779 35.0148 47.0871 15.2228 47.0871 15.2228L5.79617 15.5582ZM30.6159 34.2535C29.1854 36.3704 25.0378 36.4305 23.139 33.9089C21.6508 31.9314 13.0756 20.44 13.0756 20.44C24.628 15.1033 27.144 25.5844 39.5297 20.953C39.5297 20.953 31.7314 32.6043 30.6159 34.2535Z"
              fill="#9A9A9A"/>
    </g>
    <g id="brain">
        <path fill-rule="evenodd" clip-rule="evenodd"
              d="M86.8021 41.5694C86.1227 45.579 83.8041 48.8399 80.2752 50.7519C79.7944 51.0127 79.2891 51.2264 78.771 51.4118C79.4305 60.0609 65.5415 63.1977 58.0602 61.1332L60.8389 70.7525L53.6898 71L41.1691 53.2846C36.9536 54.4614 31.9682 55.0309 28.7556 49.9232C28.4513 49.4392 28.1859 48.9545 27.957 48.4667C27.1259 48.634 26.2939 48.7189 25.4699 48.7189C23.0717 48.7189 19.1321 48.0166 17.0931 46.6308C15.3918 45.4745 14.118 43.9709 13.4291 42.384C9.13184 42.963 5.51317 41.9677 3.07927 39.4955C0.0605353 36.4286 -0.80162 31.3507 0.772509 25.9106C2.87506 18.6457 9.18032 10.4585 21.7201 7.4089C22.7626 6.12607 24.0356 4.97521 25.5756 4.00032C33.4486 -0.987267 46.2419 -1.41776 55.933 3.31137C59.4356 2.62007 63.2744 2.93901 67.1402 4.37425C74.1169 6.96348 79.1881 12.3666 80.1409 17.8586C82.0297 18.857 83.5553 20.2938 84.5748 22.1894C86.6639 26.0717 86.9921 29.9634 85.5514 33.1057C86.8307 35.548 87.3067 38.5921 86.8021 41.5694ZM81.6491 37.4782C78.0137 39.5151 74.4435 37.4789 74.4435 37.4789L75.0204 33.6713C77.4718 33.9038 79.4686 33.1497 80.5088 31.6076C81.6705 29.888 81.4901 27.3294 80.0161 24.587C78.3633 21.5154 74.7955 21.0268 72.8153 21.0087C72.774 21.0087 72.7319 21.0079 72.6898 21.0079C67.733 21.0079 62.6785 23.7951 60.6363 27.4331L57.6629 26.0245C58.2954 24.0331 59.2974 22.3544 60.5672 20.9718C58.4408 19.2097 57.0566 16.0714 57.7415 12.9904L60.6744 12.7233C60.6506 14.0462 62.0992 17.1099 65.0838 17.7478C67.412 16.6928 70.0723 16.1688 72.8622 16.1884C73.2452 16.1916 73.6107 16.2277 73.9826 16.2513C72.3958 13.3627 69.4446 10.4648 65.4644 8.93997C56.6553 5.5636 50.7195 10.8049 49.3631 12.6062C46.0941 16.9489 48.1903 21.0425 49.7835 23.7087L47.1597 26.0403C45.0229 24.0787 43.2351 21.4942 42.8219 18.4792C39.4622 19.4768 34.9496 19.2372 32.422 14.9936L34.8082 13.3784C37.4876 15.3612 41.734 15.1892 43.7547 12.7406C44.1997 11.768 44.783 10.7727 45.5673 9.75304C46.7544 8.20861 48.1378 6.92263 49.6651 5.89432C43.0746 4.11736 33.7664 4.4096 28.1461 7.9698C24.9057 10.0217 23.33 12.8364 23.33 16.5749C23.33 19.3786 25.5573 23.8077 28.5498 24.5037L26.7961 27.8667C24.7317 27.3867 23.0821 26.3498 21.8131 25.0135L19.2282 28.2658L16.664 27.0136L19.1885 20.4816C18.7729 19.1799 18.5615 17.8413 18.5615 16.5749C18.5615 15.4704 18.691 14.4193 18.8976 13.4028C10.9849 16.6488 7.02294 22.0103 5.58469 26.979C4.48653 30.7741 4.91245 34.196 6.72496 36.0366C8.16162 37.4954 10.3659 37.838 12.4382 37.7052L17.96 33.4238L19.7868 34.9486L18.1316 40.3094C18.9994 43.0353 21.8361 44.443 27.013 43.432C27.195 41.5081 27.9952 39.5371 29.5105 37.4915C30.669 35.9282 31.9897 34.852 33.4279 34.1073L36.1455 26.8722L38.8671 26.752L38.5739 32.687C43.1413 32.2203 48.2554 33.145 53.0088 32.4348L53.8885 35.5559C46.9094 38.7437 39.765 33.5424 33.2889 40.4052C30.9623 42.8711 31.8467 45.0141 33.2968 47.1752C35.3684 50.2641 39.2612 48.4062 43.2414 47.2043C49.2773 45.3818 53.658 44.0974 61.9077 44.7282C59.9434 41.0329 60.1341 36.5622 62.7714 31.6429L66.6507 33.1622C63.9284 39.3745 66.4815 42.9677 68.2447 44.5561C70.9703 47.0103 75.0721 47.7487 77.7928 46.275C80.6423 44.7298 81.4695 42.1342 81.7087 40.7249C81.8914 39.6377 81.8557 38.5175 81.6491 37.4782Z"
              fill="#9A9A9A"/>
    </g>
    <g id="balalaika">
        <path fill-rule="evenodd" clip-rule="evenodd"
              d="M55.292 50.4676L35.4283 54.9521C33.5661 57.9614 38.7389 60.1859 39.5263 59.4306L40.2793 60.6933C37.5894 63.9445 32.1521 65.7914 27.8874 64.3163C18.6223 73.9578 7.28797 80 7.28797 80L0 30.683C0 30.683 12.8747 33.2674 24.594 39.7109C28.6174 37.2916 34.4225 36.8727 38.9631 39.9056L38.7102 41.5224C35.003 41.4633 32.7959 44.0832 33.8304 46.0304L33.9684 46.1602L54.3667 44.449L67.293 37.2975L68 51.6241L55.292 50.4676ZM11.6217 66.6765C8.79385 67.1367 9.25366 71.6861 12.5183 71.155C15.2714 70.7302 14.5012 66.2281 11.6217 66.6765ZM17.7659 48.3847L13.0931 49.4232L15.7025 61.2716L19.4557 60.3157L17.7659 48.3847ZM26.9621 46.4847L22.2433 47.2577L24.6228 59.0176L28.4219 58.0617L26.9621 46.4847ZM37.9745 33.0432L38.7906 24.2632L36.2559 23.6023L37.4859 17.3536L32.1406 17.2179C32.1406 17.2179 31.267 24.0566 31.0314 26.3461C30.2382 34.6423 19.5706 32.0283 22.7491 24.8237L28.7381 25.6498L29.6232 11.8012L44.1014 12.6331L41.8024 19.761L44.4635 20.4101L37.9745 33.0432ZM24.8987 5.72356C24.8987 5.72356 23.9733 13.1937 23.8239 14.7514C23.0134 23.266 11.432 20.9883 14.8633 13.1996L21.3409 14.0906L22.341 0L31.8992 0.513351C32.8419 3.99469 28.9105 5.72356 24.8987 5.72356Z"
              fill="#969696"/>
    </g>
    <g id="apple">
        <path fill-rule="evenodd" clip-rule="evenodd"
              d="M40.363 76.5849L30.3066 73.7354L20.3982 77C-10.8279 56.9302 -5.04142 17.6312 29.8236 29.952C67.6845 17.0634 68.4349 57.5744 40.363 76.5849ZM31.0484 35.9263L31.0329 67.6753L39.7311 70.0642C60.8974 55.1195 60.9883 23.5755 31.0484 35.9263ZM36.081 55.4223C36.081 55.4223 36.081 49.4806 36.081 46.0152C36.081 40.734 44.2426 40.2048 44.2426 46.0152C44.2426 51.7922 36.081 55.4223 36.081 55.4223ZM27.6372 24.3929L9.91941 5.53425L15.4514 0L25.0456 13.9257C26.5465 6.24618 35.6395 0.744531 44.4659 0.0694762C48.6242 12.3586 43.8254 26.7123 27.6372 24.3929Z"
              fill="#969696"/>
    </g>


    <g id="logo">
        <path d="M14.9533 36.4002C12.9773 36.4002 11.1786 36.0202 9.55726 35.2602C7.96126 34.5002 6.58059 33.4742 5.41526 32.1822C4.27526 30.8649 3.38859 29.3955 2.75526 27.7742C2.12193 26.1275 1.80526 24.4429 1.80526 22.7202C1.80526 20.9215 2.13459 19.2115 2.79326 17.5902C3.47726 15.9435 4.40193 14.4869 5.56726 13.2202C6.75793 11.9282 8.15126 10.9149 9.74726 10.1802C11.3686 9.4202 13.1419 9.0402 15.0673 9.0402C17.0179 9.0402 18.7913 9.43287 20.3873 10.2182C22.0086 11.0035 23.3893 12.0549 24.5293 13.3722C25.6693 14.6895 26.5559 16.1589 27.1893 17.7802C27.8226 19.4015 28.1393 21.0735 28.1393 22.7962C28.1393 24.5695 27.8099 26.2795 27.1513 27.9262C26.4926 29.5475 25.5679 31.0042 24.3773 32.2962C23.2119 33.5629 21.8186 34.5635 20.1973 35.2982C18.6013 36.0329 16.8533 36.4002 14.9533 36.4002ZM7.12526 22.7202C7.12526 23.8855 7.30259 25.0129 7.65726 26.1022C8.01193 27.1915 8.51859 28.1669 9.17726 29.0282C9.86126 29.8642 10.6846 30.5355 11.6473 31.0422C12.6353 31.5235 13.7499 31.7642 14.9913 31.7642C16.2579 31.7642 17.3853 31.5109 18.3733 31.0042C19.3613 30.4722 20.1846 29.7755 20.8433 28.9142C21.5019 28.0275 21.9959 27.0522 22.3253 25.9882C22.6799 24.8989 22.8573 23.8095 22.8573 22.7202C22.8573 21.5549 22.6673 20.4402 22.2873 19.3762C21.9326 18.2869 21.4133 17.3242 20.7293 16.4882C20.0706 15.6269 19.2473 14.9555 18.2593 14.4742C17.2966 13.9675 16.2073 13.7142 14.9913 13.7142C13.6993 13.7142 12.5593 13.9802 11.5713 14.5122C10.6086 15.0189 9.79793 15.7029 9.13926 16.5642C8.48059 17.4255 7.97393 18.3882 7.61926 19.4522C7.28993 20.5162 7.12526 21.6055 7.12526 22.7202ZM31.6299 8.4702H36.7219V29.8262C36.7219 30.7382 36.8739 31.3589 37.1779 31.6882C37.4819 31.9922 37.8999 32.1442 38.4319 32.1442C38.8372 32.1442 39.2552 32.0935 39.6859 31.9922C40.1166 31.8909 40.4966 31.7642 40.8259 31.6122L41.5099 35.4882C40.8259 35.8175 40.0279 36.0709 39.1159 36.2482C38.2039 36.4255 37.3806 36.5142 36.6459 36.5142C35.0499 36.5142 33.8086 36.0962 32.9219 35.2602C32.0606 34.3989 31.6299 33.1829 31.6299 31.6122V8.4702ZM42.3605 30.3202C42.3605 29.0282 42.7151 27.9009 43.4245 26.9382C44.1591 25.9502 45.1725 25.1902 46.4645 24.6582C47.7565 24.1262 49.2385 23.8602 50.9105 23.8602C51.7465 23.8602 52.5951 23.9235 53.4565 24.0502C54.3178 24.1769 55.0651 24.3795 55.6985 24.6582V23.5942C55.6985 22.3275 55.3185 21.3522 54.5585 20.6682C53.8238 19.9842 52.7218 19.6422 51.2525 19.6422C50.1631 19.6422 49.1245 19.8322 48.1365 20.2122C47.1485 20.5922 46.1098 21.1495 45.0205 21.8842L43.3865 18.5402C44.7038 17.6789 46.0465 17.0329 47.4145 16.6022C48.8078 16.1715 50.2645 15.9562 51.7845 15.9562C54.6218 15.9562 56.8258 16.6655 58.3965 18.0842C59.9925 19.5029 60.7905 21.5295 60.7905 24.1642V30.5102C60.7905 31.0422 60.8791 31.4222 61.0565 31.6502C61.2591 31.8782 61.5758 32.0175 62.0065 32.0682V36.2102C61.5505 36.2862 61.1325 36.3495 60.7525 36.4002C60.3978 36.4509 60.0938 36.4762 59.8405 36.4762C58.8271 36.4762 58.0545 36.2482 57.5225 35.7922C57.0158 35.3362 56.6991 34.7789 56.5725 34.1202L56.4585 33.0942C55.5971 34.2089 54.5205 35.0702 53.2285 35.6782C51.9365 36.2862 50.6191 36.5902 49.2765 36.5902C47.9591 36.5902 46.7685 36.3242 45.7045 35.7922C44.6658 35.2349 43.8425 34.4875 43.2345 33.5502C42.6518 32.5875 42.3605 31.5109 42.3605 30.3202ZM54.7485 31.3462C55.0271 31.0422 55.2551 30.7382 55.4325 30.4342C55.6098 30.1302 55.6985 29.8515 55.6985 29.5982V27.5842C55.0905 27.3309 54.4318 27.1409 53.7225 27.0142C53.0131 26.8622 52.3418 26.7862 51.7085 26.7862C50.3911 26.7862 49.3018 27.0775 48.4405 27.6602C47.6045 28.2175 47.1865 28.9649 47.1865 29.9022C47.1865 30.4089 47.3258 30.8902 47.6045 31.3462C47.8831 31.8022 48.2885 32.1695 48.8205 32.4482C49.3525 32.7269 49.9858 32.8662 50.7205 32.8662C51.4805 32.8662 52.2278 32.7269 52.9625 32.4482C53.6971 32.1442 54.2925 31.7769 54.7485 31.3462Z"
                fill="#2D2D2D"/>
        <circle cx="69.6273" cy="33.2102" r="4" fill="#E63946"/>
    </g>

    <g id = "quote">
        <path d="M78.2209 89C88.8823 89 98.9644 91.0859 108.467 95.2578C117.97 99.1979 126.197 104.76 133.151 111.945C140.335 118.898 145.898 127.126 149.838 136.629C154.01 146.132 156.096 156.214 156.096 166.875C156.096 177.536 154.01 187.618 149.838 197.121C145.898 206.624 140.335 214.967 133.151 222.152C126.197 229.105 117.97 234.668 108.467 238.84C98.9644 242.78 88.8823 244.75 78.2209 244.75C67.5594 244.75 57.4774 242.78 47.9748 238.84C38.4722 234.668 30.1284 229.105 22.9435 222.152C15.9904 214.967 10.4279 206.624 6.25604 197.121C2.31594 187.618 0.345886 177.536 0.345886 166.875L-0.00177002 155.75C-0.00177002 134.195 4.05422 114.031 12.1662 95.2578C20.2782 76.2526 31.4032 59.681 45.5412 45.543C59.6792 31.4049 76.1349 20.2799 94.9084 12.168C113.914 4.05599 134.194 0 155.748 0V44.5C140.915 44.5 126.661 47.2812 112.987 52.8438C99.5438 58.4062 87.6076 66.5182 77.1779 77.1797C75.092 79.0339 73.1219 81.1198 71.2678 83.4375C69.4136 85.5234 67.6753 87.7253 66.0529 90.043C67.9071 89.5794 69.8771 89.3477 71.9631 89.3477C74.049 89.1159 76.1349 89 78.2209 89ZM278.471 89C289.132 89 299.214 91.0859 308.717 95.2578C318.22 99.1979 326.447 104.76 333.401 111.945C340.585 118.898 346.148 127.126 350.088 136.629C354.26 146.132 356.346 156.214 356.346 166.875C356.346 177.536 354.26 187.618 350.088 197.121C346.148 206.624 340.585 214.967 333.401 222.152C326.447 229.105 318.22 234.668 308.717 238.84C299.214 242.78 289.132 244.75 278.471 244.75C267.809 244.75 257.727 242.78 248.225 238.84C238.722 234.668 230.378 229.105 223.194 222.152C216.24 214.967 210.678 206.624 206.506 197.121C202.566 187.618 200.596 177.536 200.596 166.875L200.248 155.75C200.248 134.195 204.304 114.031 212.416 95.2578C220.528 76.2526 231.653 59.681 245.791 45.543C259.929 31.4049 276.385 20.2799 295.158 12.168C314.164 4.05599 334.444 0 355.998 0V44.5C341.165 44.5 326.911 47.2812 313.237 52.8438C299.794 58.4062 287.858 66.5182 277.428 77.1797C275.342 79.0339 273.372 81.1198 271.518 83.4375C269.664 85.5234 267.925 87.7253 266.303 90.043C268.157 89.5794 270.127 89.3477 272.213 89.3477C274.299 89.1159 276.385 89 278.471 89Z" fill="#F7F7F7"/>
    </g>

<!--    <g id="youtube">-->
<!--        <path d="M508.64 148.79c0-45-33.1-81.2-74-81.2C379.24 65 322.74 64 265 64h-18c-57.6 0-114.2 1-169.6 3.6C36.6 67.6 3.5 104 3.5 149 1 184.59-.06 220.19 0 255.79q-.15 53.4 3.4 106.9c0 45 33.1 81.5 73.9 81.5 58.2 2.7 117.9 3.9 178.6 3.8q91.2.3 178.6-3.8c40.9 0 74-36.5 74-81.5 2.4-35.7 3.5-71.3 3.4-107q.34-53.4-3.26-106.9zM207 353.89v-196.5l145 98.2z"/>-->
<!--    </g>-->

<!--    <g id="dribbble">-->
<!--        <path d="M256 32C132.33 32 32 132.33 32 256s100.33 224 224 224 224-100.22 224-224S379.67 32 256 32zm142.22 103.25a186.36 186.36 0 0144 108.38c-40.37-2.1-88.67-2.1-127.4 1.52-4.9-12.37-9.92-24.5-15.4-36.17 44.66-19.36 79.08-44.8 98.8-73.73zM256 69.33a185.81 185.81 0 01119.12 42.94c-20.3 25.66-52.15 48-91.82 64.86C261.6 137 236.63 102.47 210 75.28a187.51 187.51 0 0146-5.95zm-84.47 20.42c26.95 26.83 52.27 61 74.44 101C203.85 203.62 155.55 211 104 211c-9.8 0-19.36-.35-28.81-.94a186.78 186.78 0 0196.34-120.31zM69.68 247.13c10.62.47 21.35.7 32.2.59 58.8-.7 113.52-9.92 160.54-25q6.65 13.83 12.6 28.35a115.43 115.43 0 00-16.69 5c-64.28 27-114.91 70.51-142.33 123.13A186 186 0 0169.33 256c0-3 .12-5.95.35-8.87zM256 442.67a185.57 185.57 0 01-114.45-39.32c24.85-49.23 69.18-90 125.07-115.27 5.25-2.45 12.25-4.43 20.3-6.18q10 27.64 17.85 57.4A678 678 0 01322 430.42a185.06 185.06 0 01-66 12.25zm100.92-29.75a672.61 672.61 0 00-17.39-92.05c-4-15.17-8.51-29.87-13.41-44.22 36.63-3 80.5-2.57 115.38 0a186.5 186.5 0 01-84.58 136.27z"/>-->
<!--    </g>-->

<!--    <g id="facebook">-->
<!--        <path d="M480 257.35c0-123.7-100.3-224-224-224s-224 100.3-224 224c0 111.8 81.9 204.47 189 221.29V322.12h-56.89v-64.77H221V208c0-56.13 33.45-87.16 84.61-87.16 24.51 0 50.15 4.38 50.15 4.38v55.13H327.5c-27.81 0-36.51 17.26-36.51 35v42h62.12l-9.92 64.77H291v156.54c107.1-16.81 189-109.48 189-221.31z" />-->
<!--    </g>-->

<!--    <g id="instagram">-->
<!--        <path d="M349.33 69.33a93.62 93.62 0 0193.34 93.34v186.66a93.62 93.62 0 01-93.34 93.34H162.67a93.62 93.62 0 01-93.34-93.34V162.67a93.62 93.62 0 0193.34-93.34h186.66m0-37.33H162.67C90.8 32 32 90.8 32 162.67v186.66C32 421.2 90.8 480 162.67 480h186.66C421.2 480 480 421.2 480 349.33V162.67C480 90.8 421.2 32 349.33 32z"/><path d="M377.33 162.67a28 28 0 1128-28 27.94 27.94 0 01-28 28zM256 181.33A74.67 74.67 0 11181.33 256 74.75 74.75 0 01256 181.33m0-37.33a112 112 0 10112 112 112 112 0 00-112-112z"/>-->
<!--    </g>-->

<!--    <g id="pinterest">-->
<!--        <path d="M256.05 32c-123.7 0-224 100.3-224 224 0 91.7 55.2 170.5 134.1 205.2-.6-15.6-.1-34.4 3.9-51.4 4.3-18.2 28.8-122.1 28.8-122.1s-7.2-14.3-7.2-35.4c0-33.2 19.2-58 43.2-58 20.4 0 30.2 15.3 30.2 33.6 0 20.5-13.1 51.1-19.8 79.5-5.6 23.8 11.9 43.1 35.4 43.1 42.4 0 71-54.5 71-119.1 0-49.1-33.1-85.8-93.2-85.8-67.9 0-110.3 50.7-110.3 107.3 0 19.5 5.8 33.3 14.8 43.9 4.1 4.9 4.7 6.9 3.2 12.5-1.1 4.1-3.5 14-4.6 18-1.5 5.7-6.1 7.7-11.2 5.6-31.3-12.8-45.9-47-45.9-85.6 0-63.6 53.7-139.9 160.1-139.9 85.5 0 141.8 61.9 141.8 128.3 0 87.9-48.9 153.5-120.9 153.5-24.2 0-46.9-13.1-54.7-27.9 0 0-13 51.6-15.8 61.6-4.7 17.3-14 34.5-22.5 48a225.13 225.13 0 0063.5 9.2c123.7 0 224-100.3 224-224S379.75 32 256.05 32z"/>-->
<!--    </g>-->

<!--    <g id="twitter">-->
<!--        <path d="M496 109.5a201.8 201.8 0 01-56.55 15.3 97.51 97.51 0 0043.33-53.6 197.74 197.74 0 01-62.56 23.5A99.14 99.14 0 00348.31 64c-54.42 0-98.46 43.4-98.46 96.9a93.21 93.21 0 002.54 22.1 280.7 280.7 0 01-203-101.3A95.69 95.69 0 0036 130.4c0 33.6 17.53 63.3 44 80.7A97.5 97.5 0 0135.22 199v1.2c0 47 34 86.1 79 95a100.76 100.76 0 01-25.94 3.4 94.38 94.38 0 01-18.51-1.8c12.51 38.5 48.92 66.5 92.05 67.3A199.59 199.59 0 0139.5 405.6a203 203 0 01-23.5-1.4A278.68 278.68 0 00166.74 448c181.36 0 280.44-147.7 280.44-275.8 0-4.2-.11-8.4-.31-12.5A198.48 198.48 0 00496 109.5z"/>-->
<!--    </g>-->


    <g id="dribble">
        <path d="M27 3.375C13.9567 3.375 3.375 13.9567 3.375 27C3.375 40.0433 13.9567 50.625 27 50.625C40.0433 50.625 50.625 40.0549 50.625 27C50.625 13.9451 40.0433 3.375 27 3.375ZM41.9998 14.2646C44.7333 17.4781 46.3604 21.4858 46.6404 25.6954C42.3826 25.4739 37.2885 25.4739 33.2037 25.8557C32.6869 24.551 32.1574 23.2717 31.5795 22.0409C36.2897 19.999 39.9199 17.3159 41.9998 14.2646ZM27 7.31215C31.5889 7.30426 36.035 8.90699 39.5634 11.841C37.4224 14.5473 34.0632 16.9035 29.8793 18.6817C27.5906 14.4492 24.9571 10.8074 22.1484 7.93969C23.7334 7.53053 25.3631 7.31973 27 7.31215ZM18.0911 9.46582C20.9334 12.2955 23.6039 15.8994 25.9421 20.1182C21.4998 21.4755 16.4057 22.2539 10.9688 22.2539C9.93516 22.2539 8.92688 22.217 7.9302 22.1548C8.62349 19.4385 9.88852 16.9016 11.6408 14.7133C13.393 12.5251 15.5921 10.7361 18.0911 9.46582ZM7.34906 26.0645C8.46914 26.1141 9.60082 26.1383 10.7452 26.1267C16.9467 26.0529 22.718 25.0805 27.6771 23.49C28.1447 24.4624 28.5877 25.4591 29.006 26.48C28.4068 26.6112 27.8184 26.7875 27.2457 27.0074C20.4662 29.855 15.1263 34.444 12.2344 39.9938C9.0633 36.4081 7.31266 31.7867 7.31215 27C7.31215 26.6836 7.3248 26.3725 7.34906 26.0645ZM27 46.6879C22.626 46.6932 18.3763 45.2332 14.9291 42.5408C17.55 37.3486 22.2254 33.0486 28.1201 30.3834C28.6738 30.125 29.4121 29.9162 30.2611 29.7316C30.9642 31.6751 31.5918 33.693 32.1437 35.7855C32.9681 38.9438 33.5752 42.1547 33.9609 45.3959C31.7388 46.2473 29.3797 46.6851 27 46.6879ZM37.6439 43.5502C37.2589 40.2753 36.6461 37.0313 35.8098 33.8418C35.3879 32.2418 34.9123 30.6914 34.3955 29.1779C38.2588 28.8615 42.8857 28.9069 46.5645 29.1779C46.2403 32.0862 45.2713 34.8856 43.728 37.3719C42.1848 39.8583 40.1063 41.969 37.6439 43.5502Z" fill="black"/>
    </g>
    <g id="facebook">
        <path fill-rule="evenodd" clip-rule="evenodd" d="M50.625 27.1426C50.625 14.0961 40.0465 3.51758 27 3.51758C13.9535 3.51758 3.375 14.0961 3.375 27.1426C3.375 38.934 12.0129 48.7078 23.3086 50.4818V33.9738H17.3085V27.1426H23.3086V21.9377C23.3086 16.0177 26.8365 12.745 32.2323 12.745C34.8173 12.745 37.5216 13.207 37.5216 13.207V19.0215H34.541C31.6079 19.0215 30.6904 20.8419 30.6904 22.7129V27.1426H37.2421L36.1958 33.9738H30.6914V50.4839C41.9871 48.7109 50.625 38.9371 50.625 27.1426Z" fill="black"/>
    </g>
    <g id="instagram">
        <path d="M36.8434 7.31215C39.4519 7.31994 41.9514 8.35962 43.7959 10.2041C45.6404 12.0486 46.6801 14.5481 46.6879 17.1566V36.8434C46.6801 39.4519 45.6404 41.9514 43.7959 43.7959C41.9514 45.6404 39.4519 46.6801 36.8434 46.6879H17.1566C14.5481 46.6801 12.0486 45.6404 10.2041 43.7959C8.35962 41.9514 7.31994 39.4519 7.31215 36.8434V17.1566C7.31994 14.5481 8.35962 12.0486 10.2041 10.2041C12.0486 8.35962 14.5481 7.31994 17.1566 7.31215H36.8434ZM36.8434 3.375H17.1566C9.57656 3.375 3.375 9.57656 3.375 17.1566V36.8434C3.375 44.4234 9.57656 50.625 17.1566 50.625H36.8434C44.4234 50.625 50.625 44.4234 50.625 36.8434V17.1566C50.625 9.57656 44.4234 3.375 36.8434 3.375Z" fill="black"/>
        <path d="M39.7965 17.1567C39.2125 17.1567 38.6415 16.9835 38.1559 16.659C37.6702 16.3346 37.2917 15.8733 37.0682 15.3337C36.8447 14.7941 36.7862 14.2003 36.9001 13.6275C37.0141 13.0546 37.2954 12.5284 37.7084 12.1154C38.1214 11.7024 38.6476 11.4212 39.2204 11.3072C39.7933 11.1933 40.387 11.2518 40.9266 11.4753C41.4663 11.6988 41.9275 12.0773 42.252 12.5629C42.5765 13.0486 42.7497 13.6195 42.7497 14.2036C42.7505 14.5917 42.6747 14.976 42.5266 15.3347C42.3784 15.6934 42.161 16.0193 41.8866 16.2936C41.6122 16.568 41.2863 16.7855 40.9276 16.9336C40.569 17.0818 40.1846 17.1576 39.7965 17.1567ZM27 19.1248C28.5576 19.1248 30.0802 19.5867 31.3753 20.452C32.6704 21.3174 33.6798 22.5473 34.2759 23.9864C34.8719 25.4254 35.0279 27.0089 34.724 28.5365C34.4202 30.0642 33.6701 31.4675 32.5687 32.5689C31.4673 33.6702 30.0641 34.4203 28.5364 34.7242C27.0087 35.028 25.4253 34.8721 23.9862 34.276C22.5472 33.6799 21.3172 32.6705 20.4519 31.3754C19.5865 30.0804 19.1247 28.5577 19.1247 27.0001C19.1269 24.9121 19.9573 22.9103 21.4338 21.4339C22.9102 19.9575 24.912 19.127 27 19.1248ZM27 15.1876C24.6637 15.1876 22.3799 15.8804 20.4373 17.1784C18.4948 18.4764 16.9807 20.3212 16.0867 22.4797C15.1926 24.6381 14.9587 27.0132 15.4145 29.3046C15.8703 31.596 16.9953 33.7008 18.6473 35.3528C20.2993 37.0048 22.4041 38.1299 24.6955 38.5857C26.9869 39.0415 29.362 38.8075 31.5205 37.9135C33.6789 37.0194 35.5238 35.5054 36.8217 33.5628C38.1197 31.6203 38.8125 29.3364 38.8125 27.0001C38.8125 23.8673 37.568 20.8627 35.3527 18.6474C33.1374 16.4322 30.1329 15.1876 27 15.1876Z" fill="black"/>
    </g>
    <g id="pinterest">
        <path d="M27.0052 3.375C13.9588 3.375 3.38025 13.9535 3.38025 27C3.38025 36.6715 9.20212 44.9824 17.5236 48.6422C17.4603 46.9969 17.5131 45.0141 17.9349 43.2211C18.3885 41.3016 20.9724 30.3434 20.9724 30.3434C20.9724 30.3434 20.2131 28.8352 20.2131 26.6098C20.2131 23.1082 22.2381 20.4926 24.7693 20.4926C26.9209 20.4926 27.9545 22.1062 27.9545 24.0363C27.9545 26.1984 26.5728 29.4258 25.8662 32.4211C25.2756 34.9312 27.1213 36.9668 29.5998 36.9668C34.0717 36.9668 37.0881 31.2187 37.0881 24.4055C37.0881 19.227 33.597 15.3563 27.2584 15.3563C20.097 15.3563 15.6252 20.7035 15.6252 26.673C15.6252 28.7297 16.2369 30.1852 17.1861 31.3031C17.6185 31.8199 17.6818 32.0309 17.5236 32.6215C17.4076 33.0539 17.1545 34.098 17.0385 34.5199C16.8802 35.1211 16.3951 35.332 15.8572 35.1105C12.556 33.7605 11.0162 30.1535 11.0162 26.0824C11.0162 19.3746 16.6799 11.3273 27.9017 11.3273C36.9193 11.3273 42.8572 17.8559 42.8572 24.859C42.8572 34.1297 37.6998 41.0484 30.106 41.0484C27.5537 41.0484 25.1595 39.6668 24.3369 38.1059C24.3369 38.1059 22.9658 43.548 22.6705 44.6027C22.1748 46.4273 21.1939 48.2414 20.2974 49.6652C22.4721 50.3068 24.7274 50.6335 26.9947 50.6355C40.0412 50.6355 50.6197 40.057 50.6197 27.0105C50.6197 13.9641 40.0517 3.375 27.0052 3.375Z" fill="black"/>
    </g>
    <g id="twitter">
        <path d="M52.3125 11.5488C50.4135 12.374 48.4042 12.9176 46.3482 13.1625C48.5089 11.8973 50.1339 9.88726 50.9182 7.50939C48.8754 8.70392 46.6441 9.54206 44.3201 9.98791C43.3414 8.96226 42.1644 8.14632 40.8606 7.5897C39.5568 7.03308 38.1535 6.7474 36.7358 6.75002C30.9962 6.75002 26.3514 11.3274 26.3514 16.9699C26.3473 17.7548 26.4372 18.5373 26.6193 19.3008C22.5035 19.1079 18.4734 18.0579 14.7867 16.2182C11.1 14.3785 7.83789 11.7895 5.2091 8.61681C4.28686 10.1716 3.79912 11.9455 3.79688 13.7531C3.79688 17.2969 5.64574 20.4293 8.4375 22.2645C6.78346 22.2252 5.16332 21.7874 3.71461 20.9883V21.1149C3.71461 26.0719 7.30055 30.1957 12.0466 31.1344C11.1541 31.3723 10.2344 31.4929 9.31078 31.493C8.65538 31.4941 8.00146 31.4305 7.35855 31.3031C8.67797 35.3637 12.5181 38.3168 17.067 38.4012C13.3707 41.2498 8.83261 42.7895 4.16602 42.7781C3.33768 42.7769 2.51012 42.7276 1.6875 42.6305C6.43484 45.6619 11.9532 47.2654 17.5859 47.25C36.7137 47.25 47.1635 31.6723 47.1635 18.1617C47.1635 17.7188 47.1519 17.2758 47.1308 16.8434C49.1591 15.4006 50.9138 13.6077 52.3125 11.5488Z" fill="black"/>
    </g>
    <g id="youtube">
        <g clip-path="url(#clip0_42214_340)">
            <path d="M53.6457 15.6927C53.6457 10.9466 50.1546 7.12863 45.841 7.12863C39.998 6.85547 34.039 6.75 27.9492 6.75H26.0508C19.9758 6.75 14.0063 6.85547 8.16331 7.12969C3.86019 7.12969 0.369172 10.9688 0.369172 15.7148C0.1055 19.4685 -0.00629711 23.2232 3.10124e-05 26.9779C-0.0105159 30.7325 0.109015 34.4907 0.358625 38.2525C0.358625 42.9986 3.84964 46.8482 8.15277 46.8482C14.291 47.1329 20.5875 47.2595 26.9895 47.2489C33.402 47.27 39.6809 47.1364 45.8262 46.8482C50.1399 46.8482 53.6309 42.9986 53.6309 38.2525C53.884 34.4872 54 30.7325 53.9895 26.9673C54.0134 23.2126 53.8988 19.4544 53.6457 15.6927ZM21.8321 37.3243V16.5997L37.125 26.9568L21.8321 37.3243Z" fill="black"/>
        </g>
        <defs>
            <clipPath id="clip0_42214_340">
                <rect width="54" height="54" fill="white"/>
            </clipPath>
        </defs>
    </g>
</svg>
