<svg width="74" height="46" viewBox="0 0 74 46" fill="none" xmlns="http://www.w3.org/2000/svg">
<path d="M14.9533 36.4002C12.9773 36.4002 11.1786 36.0202 9.55726 35.2602C7.96126 34.5002 6.58059 33.4742 5.41526 32.1822C4.27526 30.8649 3.38859 29.3955 2.75526 27.7742C2.12193 26.1275 1.80526 24.4429 1.80526 22.7202C1.80526 20.9215 2.13459 19.2115 2.79326 17.5902C3.47726 15.9435 4.40193 14.4869 5.56726 13.2202C6.75793 11.9282 8.15126 10.9149 9.74726 10.1802C11.3686 9.4202 13.1419 9.0402 15.0673 9.0402C17.0179 9.0402 18.7913 9.43287 20.3873 10.2182C22.0086 11.0035 23.3893 12.0549 24.5293 13.3722C25.6693 14.6895 26.5559 16.1589 27.1893 17.7802C27.8226 19.4015 28.1393 21.0735 28.1393 22.7962C28.1393 24.5695 27.8099 26.2795 27.1513 27.9262C26.4926 29.5475 25.5679 31.0042 24.3773 32.2962C23.2119 33.5629 21.8186 34.5635 20.1973 35.2982C18.6013 36.0329 16.8533 36.4002 14.9533 36.4002ZM7.12526 22.7202C7.12526 23.8855 7.30259 25.0129 7.65726 26.1022C8.01193 27.1915 8.51859 28.1669 9.17726 29.0282C9.86126 29.8642 10.6846 30.5355 11.6473 31.0422C12.6353 31.5235 13.7499 31.7642 14.9913 31.7642C16.2579 31.7642 17.3853 31.5109 18.3733 31.0042C19.3613 30.4722 20.1846 29.7755 20.8433 28.9142C21.5019 28.0275 21.9959 27.0522 22.3253 25.9882C22.6799 24.8989 22.8573 23.8095 22.8573 22.7202C22.8573 21.5549 22.6673 20.4402 22.2873 19.3762C21.9326 18.2869 21.4133 17.3242 20.7293 16.4882C20.0706 15.6269 19.2473 14.9555 18.2593 14.4742C17.2966 13.9675 16.2073 13.7142 14.9913 13.7142C13.6993 13.7142 12.5593 13.9802 11.5713 14.5122C10.6086 15.0189 9.79793 15.7029 9.13926 16.5642C8.48059 17.4255 7.97393 18.3882 7.61926 19.4522C7.28993 20.5162 7.12526 21.6055 7.12526 22.7202ZM31.6299 8.4702H36.7219V29.8262C36.7219 30.7382 36.8739 31.3589 37.1779 31.6882C37.4819 31.9922 37.8999 32.1442 38.4319 32.1442C38.8372 32.1442 39.2552 32.0935 39.6859 31.9922C40.1166 31.8909 40.4966 31.7642 40.8259 31.6122L41.5099 35.4882C40.8259 35.8175 40.0279 36.0709 39.1159 36.2482C38.2039 36.4255 37.3806 36.5142 36.6459 36.5142C35.0499 36.5142 33.8086 36.0962 32.9219 35.2602C32.0606 34.3989 31.6299 33.1829 31.6299 31.6122V8.4702ZM42.3605 30.3202C42.3605 29.0282 42.7151 27.9009 43.4245 26.9382C44.1591 25.9502 45.1725 25.1902 46.4645 24.6582C47.7565 24.1262 49.2385 23.8602 50.9105 23.8602C51.7465 23.8602 52.5951 23.9235 53.4565 24.0502C54.3178 24.1769 55.0651 24.3795 55.6985 24.6582V23.5942C55.6985 22.3275 55.3185 21.3522 54.5585 20.6682C53.8238 19.9842 52.7218 19.6422 51.2525 19.6422C50.1631 19.6422 49.1245 19.8322 48.1365 20.2122C47.1485 20.5922 46.1098 21.1495 45.0205 21.8842L43.3865 18.5402C44.7038 17.6789 46.0465 17.0329 47.4145 16.6022C48.8078 16.1715 50.2645 15.9562 51.7845 15.9562C54.6218 15.9562 56.8258 16.6655 58.3965 18.0842C59.9925 19.5029 60.7905 21.5295 60.7905 24.1642V30.5102C60.7905 31.0422 60.8791 31.4222 61.0565 31.6502C61.2591 31.8782 61.5758 32.0175 62.0065 32.0682V36.2102C61.5505 36.2862 61.1325 36.3495 60.7525 36.4002C60.3978 36.4509 60.0938 36.4762 59.8405 36.4762C58.8271 36.4762 58.0545 36.2482 57.5225 35.7922C57.0158 35.3362 56.6991 34.7789 56.5725 34.1202L56.4585 33.0942C55.5971 34.2089 54.5205 35.0702 53.2285 35.6782C51.9365 36.2862 50.6191 36.5902 49.2765 36.5902C47.9591 36.5902 46.7685 36.3242 45.7045 35.7922C44.6658 35.2349 43.8425 34.4875 43.2345 33.5502C42.6518 32.5875 42.3605 31.5109 42.3605 30.3202ZM54.7485 31.3462C55.0271 31.0422 55.2551 30.7382 55.4325 30.4342C55.6098 30.1302 55.6985 29.8515 55.6985 29.5982V27.5842C55.0905 27.3309 54.4318 27.1409 53.7225 27.0142C53.0131 26.8622 52.3418 26.7862 51.7085 26.7862C50.3911 26.7862 49.3018 27.0775 48.4405 27.6602C47.6045 28.2175 47.1865 28.9649 47.1865 29.9022C47.1865 30.4089 47.3258 30.8902 47.6045 31.3462C47.8831 31.8022 48.2885 32.1695 48.8205 32.4482C49.3525 32.7269 49.9858 32.8662 50.7205 32.8662C51.4805 32.8662 52.2278 32.7269 52.9625 32.4482C53.6971 32.1442 54.2925 31.7769 54.7485 31.3462Z" fill="#2D2D2D"/>
<circle cx="69.6273" cy="33.2102" r="4" fill="#E63946"/>
</svg>
